<svg width="30" height="30" viewBox="0 0 40 40" fill="none" xmlns="http://www.w3.org/2000/svg">
<path d="M28.2918 11.7078C27.9802 11.3958 27.4751 11.3958 27.1635 11.7078L20 18.8721L12.8365 11.7078C12.5249 11.3958 12.0198 11.3958 11.7082 11.7078C11.3966 12.0194 11.3966 12.5245 11.7082 12.8361L18.8717 20.0004L11.7082 27.1647C11.3966 27.4759 11.3966 27.9814 11.7082 28.293C11.8642 28.4486 12.0681 28.5264 12.2723 28.5264C12.4766 28.5264 12.6805 28.4486 12.8365 28.293L20 21.1291L27.1635 28.293C27.3195 28.4486 27.5234 28.5264 27.7277 28.5264C27.9319 28.5264 28.1358 28.4486 28.2918 28.293C28.6034 27.9814 28.6034 27.4759 28.2918 27.1647L21.1283 20.0004L28.2918 12.8361C28.6038 12.5249 28.6038 12.0194 28.2918 11.7078ZM20 0C8.97165 0 0 8.97165 0 19.9992C0.000797941 31.0279 8.97325 40 20.0016 40C31.0287 40 40 31.0275 40 19.9992C40 8.97165 31.0283 0 20 0ZM20.0016 38.4045H20.0008C9.85298 38.4045 1.59668 30.1478 1.59588 19.9996C1.59588 9.85178 9.85178 1.59628 20 1.59628C30.1482 1.59628 38.4041 9.85218 38.4041 19.9996C38.4041 30.1474 30.149 38.4045 20.0016 38.4045Z" fill="#2EACF4"/>
</svg>
