<svg width="35" height="35" viewBox="0 0 35 35" fill="none" xmlns="http://www.w3.org/2000/svg">
<path d="M18.125 35.0002C13.318 35.0002 8.70779 33.0906 5.30869 29.6915C1.90959 26.2924 0 21.6822 0 16.8752C0 9.53144 4.21875 2.94707 10.7508 0.104101C10.981 0.0037686 11.2361 -0.0248974 11.4828 0.0218385C11.7296 0.0685744 11.9565 0.188545 12.1341 0.366117C12.3117 0.54369 12.4316 0.770631 12.4784 1.01737C12.5251 1.26411 12.4964 1.5192 12.3961 1.74941C11.6461 3.47129 11.25 5.67676 11.25 8.12519C11.25 16.7408 18.2594 23.7502 26.875 23.7502C29.3234 23.7502 31.5289 23.3541 33.2508 22.6041C33.481 22.5038 33.7361 22.4751 33.9828 22.5218C34.2296 22.5686 34.4565 22.6885 34.6341 22.8661C34.8117 23.0437 34.9316 23.2706 34.9784 23.5174C35.0251 23.7641 34.9964 24.0192 34.8961 24.2494C32.0531 30.7814 25.4688 35.0002 18.125 35.0002Z" fill="#2EACF4"/>
</svg>
