<svg width="40" height="40" viewBox="0 0 40 40" fill="none" xmlns="http://www.w3.org/2000/svg">
<g clip-path="url(#clip0_492_42)">
<path d="M6.28352 19.9015C6.28352 19.2776 5.86754 18.8506 5.23262 18.8506H1.0509C0.426929 18.8506 0 19.4745 0 19.9015C0 20.5255 0.415982 20.9525 1.0509 20.9525H5.23262C5.86754 20.9414 6.28352 20.5255 6.28352 19.9015Z" fill="#187468"/>
<path d="M8.80142 29.5238L5.86765 32.4576C5.45167 32.8736 5.45167 33.5086 5.86765 33.9245C6.28363 34.3405 6.91855 34.3405 7.33454 33.9245L10.2683 30.9907C10.6843 30.5746 10.6843 29.9397 10.2683 29.5238C9.85233 29.3158 9.2174 29.1078 8.80142 29.5238Z" fill="#187468"/>
<path d="M30.9909 10.2682L33.9246 7.33443C34.3405 6.91845 34.3405 6.28353 33.9246 5.86754C33.5086 5.45156 32.8735 5.45156 32.4577 5.86754L29.5239 8.80132C29.1079 9.2173 29.1079 9.85222 29.5239 10.2682C29.9509 10.6842 30.7828 10.6842 30.9909 10.2682Z" fill="#187468"/>
<path d="M19.9015 6.28352C20.5255 6.28352 20.9525 5.86754 20.9525 5.23262V1.0509C20.9525 0.426929 20.5365 0 19.9015 0C19.4855 0 18.8506 0.415982 18.8506 1.0509V5.23262C18.8506 5.86754 19.4746 6.28352 19.9015 6.28352Z" fill="#187468"/>
<path d="M8.80142 10.2682C9.2174 10.6842 9.85233 10.6842 10.2683 10.2682C10.6843 9.85222 10.6843 9.2173 10.2683 8.80132L7.33454 5.86754C6.91855 5.45156 6.28363 5.45156 5.86765 5.86754C5.45167 6.28353 5.45167 6.91845 5.86765 7.33443L8.80142 10.2682Z" fill="#187468"/>
<path d="M19.9015 33.7165C19.2776 33.7165 18.8506 34.1325 18.8506 34.7675V38.9491C18.8506 39.5731 19.2666 40.0001 19.9015 40.0001C20.5365 40.0001 20.9525 39.5841 20.9525 38.9491V34.7675C20.9414 34.1325 20.5255 33.7165 19.9015 33.7165Z" fill="#187468"/>
<path d="M38.9492 18.8506H34.7676C34.1436 18.8506 33.7166 19.2666 33.7166 19.9015C33.7166 20.5365 34.1325 20.9525 34.7676 20.9525H38.9492C39.5731 20.9525 40.0002 20.5365 40.0002 19.9015C40.0001 19.4745 39.3653 18.8506 38.9492 18.8506Z" fill="#187468"/>
<path d="M30.9907 29.5238C30.5747 29.1078 29.9397 29.1078 29.5239 29.5238C29.108 29.9398 29.1079 30.5747 29.5239 30.9907L32.4576 33.9245C32.8736 34.3404 33.5086 34.3404 33.9245 33.9245C34.3404 33.5085 34.3405 32.8735 33.9245 32.4576L30.9907 29.5238Z" fill="#187468"/>
<path d="M19.9014 31.4176C26.2616 31.4176 31.4175 26.2617 31.4175 19.9015C31.4175 13.5413 26.2616 8.38533 19.9014 8.38533C13.5412 8.38533 8.38525 13.5413 8.38525 19.9015C8.38525 26.2617 13.5412 31.4176 19.9014 31.4176Z" fill="#187468"/>
</g>
<defs>
<clipPath id="clip0_492_42">
<rect width="40" height="40" fill="white"/>
</clipPath>
</defs>
</svg>
