<svg width="40" height="40" viewBox="0 0 40 40" fill="none" xmlns="http://www.w3.org/2000/svg">
<path d="M34.1405 14.1405V5.85948H25.8595L20 0L14.1405 5.85948H5.85948V14.1405L0 20L5.85948 25.8595V34.1405H14.1405L20 40L25.8595 34.1405H34.1405V25.8595L40 20L34.1405 14.1405V14.1405ZM20 30.6054C18.418 30.6054 16.9244 30.2519 15.5811 29.6332C19.2311 27.954 21.7676 24.2775 21.7676 20C21.7676 15.7225 19.2311 12.046 15.5811 10.3668C16.9244 9.74812 18.418 9.39461 20 9.39461C25.8595 9.39461 30.6054 14.1405 30.6054 20C30.6054 25.8595 25.8595 30.6054 20 30.6054Z" fill="#2EACF4"/>
</svg>
